<?xml version="1.0" encoding="UTF-8" standalone="no"?>
<!-- Created with Inkscape (http://www.inkscape.org/) -->

<svg
   xmlns:dc="http://purl.org/dc/elements/1.1/"
   xmlns:cc="http://creativecommons.org/ns#"
   xmlns:rdf="http://www.w3.org/1999/02/22-rdf-syntax-ns#"
   xmlns:svg="http://www.w3.org/2000/svg"
   xmlns="http://www.w3.org/2000/svg"
   xmlns:sodipodi="http://sodipodi.sourceforge.net/DTD/sodipodi-0.dtd"
   xmlns:inkscape="http://www.inkscape.org/namespaces/inkscape"
   width="472.33713"
   height="471.88602"
   viewBox="0 0 472.33714 471.88602"
   id="svg2"
   version="1.1"
   inkscape:version="0.91 r13725"
   sodipodi:docname="Pkcs11Admin.svg">
  <defs
     id="defs4" />
  <sodipodi:namedview
     id="base"
     pagecolor="#ffffff"
     bordercolor="#666666"
     borderopacity="1.0"
     inkscape:pageopacity="0.0"
     inkscape:pageshadow="2"
     inkscape:zoom="0.8025"
     inkscape:cx="131.10838"
     inkscape:cy="242.13736"
     inkscape:document-units="px"
     inkscape:current-layer="layer1"
     showgrid="true"
     units="px"
     guidetolerance="20"
     inkscape:window-width="1920"
     inkscape:window-height="1148"
     inkscape:window-x="-8"
     inkscape:window-y="-8"
     inkscape:window-maximized="1"
     fit-margin-top="0"
     fit-margin-left="0"
     fit-margin-right="0"
     fit-margin-bottom="0" />
  <metadata
     id="metadata7">
    <rdf:RDF>
      <cc:Work
         rdf:about="">
        <dc:format>image/svg+xml</dc:format>
        <dc:type
           rdf:resource="http://purl.org/dc/dcmitype/StillImage" />
        <dc:title></dc:title>
      </cc:Work>
    </rdf:RDF>
  </metadata>
  <g
     inkscape:label="Layer 1"
     inkscape:groupmode="layer"
     id="layer1"
     transform="translate(-63.831442,-516.41918)">
    <g
       id="g4142">
      <circle
         inkscape:export-ydpi="48.825352"
         inkscape:export-xdpi="48.825352"
         r="183.84776"
         cy="752.36218"
         cx="300"
         id="path4202"
         style="opacity:1;fill:#2d7500;fill-opacity:1;stroke:none;stroke-width:3;stroke-linecap:square;stroke-linejoin:miter;stroke-miterlimit:4;stroke-dasharray:none;stroke-opacity:1" />
      <path
         sodipodi:nodetypes="cccccccc"
         inkscape:export-ydpi="48.825352"
         inkscape:export-xdpi="48.825352"
         inkscape:connector-curvature="0"
         id="path4156-8"
         d="m 299.99998,646.47025 c -28.01821,-1.8e-4 -50.73152,22.71309 -50.73141,50.7313 0.029,21.2889 13.34665,40.2951 33.34656,47.59036 l -20.6469,113.46221 78.12191,0 -23.5511,-113.15692 c 20.43892,-7.04829 34.16515,-26.27558 34.19238,-47.89565 1.1e-4,-28.01821 -22.71321,-50.7315 -50.73144,-50.7313 z"
         style="opacity:1;fill:#ffd42a;fill-opacity:1;stroke:none;stroke-width:3;stroke-linecap:square;stroke-linejoin:miter;stroke-miterlimit:4;stroke-dasharray:none;stroke-opacity:1" />
      <path
         inkscape:export-ydpi="48.825352"
         inkscape:export-xdpi="48.825352"
         inkscape:connector-curvature="0"
         id="path4225-1-1"
         d="m 353.58697,516.43441 c -0.7661,-0.0485 -1.24361,0.0177 -1.37462,0.21448 -0.27162,0.40825 -5.50699,8.80244 -11.63308,18.65352 -7.24111,11.64422 -11.4692,17.78388 -12.0829,17.54887 -0.51909,-0.19916 -7.01858,-0.76897 -14.44452,-1.26622 -10.84106,-0.72596 -16.09373,-0.72254 -26.6635,0.0144 -7.24002,0.50464 -13.99293,1.08261 -15.00485,1.28464 -1.72255,0.34418 -2.54997,-0.78088 -12.96855,-17.61801 -6.12124,-9.89189 -11.36124,-18.25145 -11.64455,-18.57743 -1.16046,-1.3357 -24.56391,5.53411 -39.35989,11.55466 -15.74646,6.40719 -38.09091,18.48072 -38.10745,20.59091 -0.0121,0.62428 2.11107,10.02918 4.7003,20.90001 2.58912,10.87038 4.70725,20.16654 4.70725,20.65773 0,0.49062 -2.68926,2.96737 -5.97567,5.50522 -7.68654,5.93607 -24.26528,22.51526 -30.20147,30.20135 -2.53795,3.2863 -5.13314,5.97038 -5.7657,5.96421 -0.63267,-0.0121 -10.27522,-2.10533 -21.42814,-4.66568 l -20.279578,-4.6542 -1.22916,1.58669 c -2.18552,2.82214 -10.55831,18.03332 -14.23015,25.85163 -4.9997,10.64598 -10.3577,25.37909 -13.82177,38.01295 -1.62143,5.91359 -2.94753,10.97063 -2.94753,11.2364 0,0.26566 8.33254,5.66921 18.51754,12.00913 l 18.517458,11.52698 -0.43362,4.34741 c -1.939808,19.39405 -1.867128,35.55506 0.22839,50.48083 l 0.58127,4.13071 -14.903488,9.23 c -8.19625,5.0769 -16.58956,10.30266 -18.65364,11.61234 l -3.75235,2.38235 2.43772,9.24377 c 3.28497,12.44727 8.37003,26.86422 13.379,37.93454 4.23603,9.3631 12.99899,25.38648 15.58855,28.50394 l 1.4483,1.74351 21.003668,-4.9954 21.00378,-4.99794 1.81045,2.30185 c 9.83365,12.50273 22.55276,25.4479 33.8593,34.45414 3.90089,3.10765 5.86924,5.15024 5.66435,5.88116 -0.97773,3.48855 -9.10549,39.97756 -9.10549,40.87743 0,2.14713 23.89099,14.92556 39.10846,20.91832 11.80433,4.64825 33.05007,11.20508 36.57612,11.28945 1.12242,0.0275 4.04591,-4.13104 12.99601,-18.4805 l 0,0 11.54783,-18.51524 3.30031,0.48424 c 7.92373,1.16146 16.97575,1.80867 25.38802,1.81508 8.20186,0 11.48343,-0.22145 25.70871,-1.7713 l 4.3451,-0.47277 10.6506,17.25133 c 5.8569,9.48882 11.08929,17.85578 11.62844,18.59144 0.94443,1.28817 1.29809,1.25112 9.61972,-0.98489 11.75515,-3.15839 25.57561,-8.02509 37.06049,-13.0516 12.616,-5.52165 31.3558,-15.79675 31.3452,-17.18659 0,-0.29379 -2.2312,-9.8995 -4.9541,-21.34741 l -4.9515,-20.81455 7.3087,-5.95262 c 9.1154,-7.42473 21.5574,-19.87564 28.6354,-28.65393 2.9665,-3.67978 5.8583,-6.69061 6.4254,-6.69061 0.5671,0 10.126,2.11802 21.2435,4.70714 11.1172,2.58924 20.3462,4.70724 20.5056,4.70724 0.7748,0 8.2986,-13.51012 13.3952,-24.05034 6.8752,-14.21966 11.9378,-27.63594 15.9137,-42.18501 2.2815,-8.34655 2.7516,-10.95761 2.0481,-11.38417 -0.5022,-0.30437 -8.8987,-5.54525 -18.6583,-11.64455 -14.1583,-8.84909 -17.7089,-11.37656 -17.5765,-12.5142 2.2199,-19.1285 2.1212,-43.92663 -0.2191,-55.47171 -0.3654,-1.8025 0.5419,-2.47841 17.5003,-13.0377 9.8365,-6.12454 18.2275,-11.35683 18.6491,-11.62855 1.602,-1.0332 -5.1658,-24.13129 -11.797,-40.26395 -4.7761,-11.61919 -15.3365,-32.32102 -19.1955,-37.62532 -0.065,-0.0894 -9.7143,2.12143 -21.4418,4.91237 l -21.3221,5.07403 -2.1725,-2.72609 c -10.5753,-13.27148 -21.4529,-24.24873 -34.2213,-34.53498 -2.8879,-2.32655 -5.2516,-4.34652 -5.2516,-4.49044 0,-0.1439 2.1182,-9.38052 4.7072,-20.52396 2.5893,-11.14399 4.7072,-20.73647 4.7072,-21.31741 0,-2.03939 -21.3511,-13.5838 -37.08577,-20.0512 -14.01895,-5.76251 -33.53805,-11.70145 -38.90079,-12.04144 z m -55.44866,72.35404 c 10.53945,0.043 22.31819,0.65484 28.22241,1.66521 45.57684,7.79967 86.09882,34.252 110.99202,72.4533 9.0672,13.91386 18.3633,35.80914 22.1408,52.14604 8.5802,37.10546 3.8921,76.82485 -13.0792,110.78219 -24.6914,49.40286 -72.56852,82.67636 -128.7115,89.45552 -8.42837,1.01765 -29.99391,0.80106 -38.74397,-0.38983 l -0.0121,0 c -55.2055,-7.51274 -101.88293,-40.82594 -125.75948,-89.76 -12.24766,-25.09634 -16.89755,-45.14423 -16.88454,-72.78767 0.0132,-27.72262 4.42482,-46.87218 16.6631,-72.331 7.87225,-16.37594 16.46019,-28.51894 29.94541,-42.34425 26.34215,-27.0046 61.70874,-44.24039 99.12363,-48.30834 3.89593,-0.42358 9.77444,-0.60433 16.09826,-0.57885 z"
         style="fill:#85bb37;fill-opacity:1" />
    </g>
  </g>
</svg>
